<?xml version="1.0" encoding="utf-8"?>
<!-- Generator: Adobe Illustrator 18.1.1, SVG Export Plug-In . SVG Version: 6.00 Build 0)  -->
<svg version="1.1" id="Layer_1" xmlns="http://www.w3.org/2000/svg" xmlns:xlink="http://www.w3.org/1999/xlink" x="0px" y="0px"
	 viewBox="238.6 38.6 482.9 482.9" enable-background="new 238.6 38.6 482.9 482.9" xml:space="preserve">
<g id="Color_Logo_without_text">
	<g id="Logo_2_">
		<g>
			<polygon fill="#F6B221" points="721.4,38.6 600.7,159.3 480,38.6 			"/>
			<polygon fill="#009444" points="600.7,400.7 721.4,521.4 480,521.4 			"/>
			<polygon fill="#FF6B00" points="600.7,159.3 480,280 480,38.6 			"/>
			<polygon fill="#00A98F" points="600.7,400.7 480,521.4 480,280 			"/>
			<polygon fill="#00BFD6" points="480,280 480,521.4 359.3,400.7 			"/>
			<polygon fill="#ED1C24" points="480,280 480,280 359.3,159.3 480,38.6 			"/>
			<polygon fill="#E74683" points="480,38.6 359.3,159.3 238.6,38.6 			"/>
			<polygon fill="#62269E" points="480,280 359.3,400.7 238.6,280 			"/>
			<polygon fill="#9F26B5" points="480,280 238.6,280 359.3,159.3 			"/>
			<polygon fill="#0075C9" points="480,521.4 238.6,521.4 359.3,400.7 			"/>
			<polygon fill="#1825AA" points="359.3,400.7 238.6,521.4 238.6,280 			"/>
			<polygon fill="#C114A2" points="238.6,38.6 359.3,159.3 238.6,280 			"/>
		</g>
	</g>
</g>

</svg>